{
  "accessors": [
    {
      "bufferView": 0,
      "byteOffset": 0,
      "componentType": 5125,
      "count": 1080,
      "type": "SCALAR"
    },
    {
      "bufferView": 1,
      "byteOffset": 0,
      "componentType": 5126,
      "count": 160,
      "max": [
        1.49325284105407640745e+00,
        1.46353761455178177364e+00,
        1.56362665742291517823e+00
      ],
      "min": [
        -1.49325284105407618540e+00,
        -1.46353761455178177364e+00,
        -1.56362665742291517823e+00
      ],
      "type": "VEC3"
    },
    {
      "bufferView": 1,
      "byteOffset": 12,
      "componentType": 5126,
      "count": 160,
      "type": "VEC3"
    }
  ],
  "asset": {
    "generator": "Wings 3D 2.3",
    "version": "2.0"
  },
  "bufferViews": [
    {
      "buffer": 0,
      "byteLength": 4320,
      "byteOffset": 0
    },
    {
      "buffer": 0,
      "byteLength": 3840,
      "byteOffset": 4320,
      "byteStride": 24
    }
  ],
  "buffers": [
    {
      "byteLength": 8160,
      "uri": "dodec.bin"
    }
  ],
  "materials": [
    {
      "doubleSided": true,
      "emissiveFactor": [
        0.00000000000000000000e+00,
        0.00000000000000000000e+00,
        0.00000000000000000000e+00
      ],
      "name": "default",
      "pbrMetallicRoughness": {
        "baseColorFactor": [
          7.89853807692307730015e-01,
          8.13333333333333352577e-01,
          6.94044444444444463826e-01,
          1.00000000000000000000e+00
        ],
        "metallicFactor": 1.00000000000000005551e-01,
        "roughnessFactor": 8.00000000000000044409e-01
      }
    }
  ],
  "meshes": [
    {
      "name": "dodecahedron1",
      "primitives": [
        {
          "attributes": {
            "NORMAL": 2,
            "POSITION": 1
          },
          "indices": 0,
          "material": 0
        }
      ]
    }
  ],
  "nodes": [
    {
      "mesh": 0,
      "name": "dodecahedron1"
    }
  ],
  "scene": 0,
  "scenes": [
    {
      "nodes": [
        0
      ]
    }
  ]
}